<?xml version="1.0" encoding="iso-8859-1"?>
<!-- Generator: Adobe Illustrator 16.0.0, SVG Export Plug-In . SVG Version: 6.00 Build 0)  -->
<!DOCTYPE svg PUBLIC "-//W3C//DTD SVG 1.1//EN" "http://www.w3.org/Graphics/SVG/1.1/DTD/svg11.dtd">
<svg version="1.1" xmlns="http://www.w3.org/2000/svg" xmlns:xlink="http://www.w3.org/1999/xlink" x="0px" y="0px" width="1000px"
	 height="800px" viewBox="0 0 1000 800" style="enable-background:new 0 0 1000 800;" xml:space="preserve">
<g id="Rounded_Rectangle_1_1_" style="enable-background:new    ;">
	<g id="Rounded_Rectangle_1">
		<g>
			<rect style="fill-rule:evenodd;clip-rule:evenodd;fill:#005599;" width="800" height="800"/>
		</g>
	</g>
</g>
<g id="Shape_2_1_" style="display:none;enable-background:new    ;">
	<g id="Shape_2" style="display:inline;">
		<g>
			<path style="fill-rule:evenodd;clip-rule:evenodd;fill:#004073;" d="M293,32c-4.377-4.949-9,397-9,397L30,671l131.49,129h830.298
				C916.767,717.773,351.594,98.25,293,32z"/>
		</g>
	</g>
</g>
<g id="Controller_1_">
	<g id="Body_1_">
		<g id="Shape_1">
			<g>
				<path style="fill:#EBEBEB;" d="M537,648c-4-39,0.989-316.987-46-338c-55.857-24.979-218-34-218-34
					s-10.762,345.924,1.001,345.924c26.037,0,52.832,0.554,59.999,0.076c15-1,47.504,4.164,56,29c13,38,53,36,53,36h68
					C511,687,541,687,537,648z"/>
			</g>
		</g>
		<g id="Shape_1_copy">
			<g>
				<path style="fill:#EBEBEB;" d="M293.508,276c0,0-161.841,9.021-217.596,33.997C29.01,331.009,33.991,608.975,29.998,647.972
					s25.952,38.997,25.952,38.997h67.874c0,0,39.926,2,52.902-35.997c8.48-24.834,40.924-29.998,55.896-28.998
					c7.153,0.478,33.899-0.076,59.888-0.076C304.25,621.897,293.508,276,293.508,276z"/>
			</g>
		</g>
	</g>
	<g id="Gear_Sticks_1_">
		<g id="Right_1_">
			<g id="Ellipse_2_copy">
				<g>
					<circle style="fill:#CC5533;" cx="402.5" cy="420.5" r="79.5"/>
				</g>
			</g>
			<g id="Ellipse_2_copy_7">
				<g>
					<path style="fill-rule:evenodd;clip-rule:evenodd;fill:#A64529;" d="M336,439.5c0-46.668,36.265-84.5,81-84.5
						c18.006,0,34.634,6.137,48.083,16.504C450.529,352.942,427.916,341,402.5,341c-43.906,0-79.5,35.594-79.5,79.5
						c0,19.91,7.336,38.097,19.432,52.044C338.293,462.394,336,451.227,336,439.5z"/>
				</g>
			</g>
			<g id="Ellipse_2_copy_8">
				<g>
					<circle style="fill:#A64529;" cx="406.5" cy="427.5" r="64.5"/>
				</g>
			</g>
			<g id="Ellipse_2_copy_4">
				<g>
					<circle style="fill:#EBEBEB;" cx="402.5" cy="420.5" r="64.5"/>
				</g>
			</g>
			<g id="Rectangle_1_copy">
				<g>
					<rect x="348" y="391" style="fill:#A64529;" width="110" height="61"/>
				</g>
			</g>
			<g id="Rectangle_1_copy_3">
				<g>
					<rect x="352" y="400" style="fill:#CC5533;" width="106" height="52"/>
				</g>
			</g>
			<g id="Rectangle_2_copy">
				<g>
					<path style="fill-rule:evenodd;clip-rule:evenodd;fill:#A64529;" d="M360,416v19h30.266c-1.444-2.68-2.266-5.743-2.266-9
						c0-3.674,1.061-7.093,2.867-10H360z M423.133,416c1.806,2.907,2.867,6.326,2.867,10c0,3.257-0.822,6.32-2.266,9H452v-19
						H423.133z"/>
				</g>
			</g>
			<g id="Rectangle_2_copy_3">
				<g>
					<path style="fill-rule:evenodd;clip-rule:evenodd;fill:#EBEBEB;" d="M356,411v19h30.266c-1.444-2.68-2.266-5.743-2.266-9
						c0-3.674,1.061-7.093,2.867-10H356z M419.133,411c1.806,2.907,2.867,6.326,2.867,10c0,3.257-0.822,6.32-2.266,9H448v-19
						H419.133z"/>
				</g>
			</g>
			<g id="Ellipse_2_copy_2">
				<g>
					<circle style="fill:#A64529;" cx="405" cy="425" r="14"/>
				</g>
			</g>
			<g id="Ellipse_2_copy_10">
				<g>
					<circle style="fill:#EBEBEB;" cx="403" cy="421" r="14"/>
				</g>
			</g>
		</g>
		<g id="Left_1_">
			<g id="Ellipse_2">
				<g>
					<circle style="fill:#CC5533;" cx="167.5" cy="420.5" r="79.5"/>
				</g>
			</g>
			<g id="Ellipse_2_copy_6">
				<g>
					<path style="fill-rule:evenodd;clip-rule:evenodd;fill:#A64529;" d="M101,439.5c0-46.668,36.265-84.5,81-84.5
						c18.006,0,34.634,6.137,48.083,16.505C215.53,352.942,192.917,341,167.5,341c-43.907,0-79.5,35.594-79.5,79.5
						c0,19.911,7.337,38.097,19.432,52.045C103.293,462.394,101,451.227,101,439.5z"/>
				</g>
			</g>
			<g id="Ellipse_2_copy_9">
				<g>
					<circle style="fill:#A64529;" cx="171.5" cy="427.5" r="64.5"/>
				</g>
			</g>
			<g id="Ellipse_2_copy_5">
				<g>
					<circle style="fill:#EBEBEB;" cx="167.5" cy="421.5" r="64.5"/>
				</g>
			</g>
			<g id="Rectangle_1">
				<g>
					<rect x="138" y="367" style="fill:#A64529;" width="61" height="110"/>
				</g>
			</g>
			<g id="Rectangle_1_copy_2">
				<g>
					<rect x="147" y="372" style="fill:#CC5533;" width="51" height="105"/>
				</g>
			</g>
			<g id="Rectangle_2_copy_2">
				<g>
					<path style="fill-rule:evenodd;clip-rule:evenodd;fill:#A64529;" d="M164,442.734V471h19v-28.866
						c-2.907,1.806-6.326,2.866-10,2.866C169.743,445,166.679,444.178,164,442.734z M164,379v30.266
						c2.679-1.443,5.743-2.266,9-2.266c3.674,0,7.093,1.061,10,2.866V379H164z"/>
				</g>
			</g>
			<g id="Rectangle_2">
				<g>
					<path style="fill-rule:evenodd;clip-rule:evenodd;fill:#EBEBEB;" d="M159,375v30.266c2.679-1.443,5.743-2.266,9-2.266
						c3.674,0,7.093,1.061,10,2.866V375H159z M159,438.734V467h19v-28.866c-2.907,1.806-6.326,2.866-10,2.866
						C164.743,441,161.679,440.178,159,438.734z"/>
				</g>
			</g>
			<g id="Ellipse_2_copy_3">
				<g>
					<circle style="fill:#A64529;" cx="170.5" cy="424.5" r="14"/>
				</g>
			</g>
			<g id="Ellipse_2_copy_11">
				<g>
					<circle style="fill:#EBEBEB;" cx="168" cy="422" r="14"/>
				</g>
			</g>
		</g>
	</g>
	<g id="Antenna_1_">
		<g id="Rounded_Rectangle_2">
			<g>
				<path style="fill:#EBEBEB;" d="M354.706,306.826l-10.804-43.219c-2.22-8.875-9.246-15.607-15.838-15.607h-87.129
					c-6.592,0-13.539,6.732-15.652,15.607l-10.29,43.219C211.809,320.203,216.317,332,225.344,332h119.312
					C353.683,332,358.051,320.203,354.706,306.826z"/>
			</g>
		</g>
		<g id="Rounded_Rectangle_3">
			<g>
				<path style="fill:#EBEBEB;" d="M297,186h-28c-2.762,0-5,2.238-5,5v83c0,2.762,2.238,5,5,5h28c2.761,0,5-2.238,5-5v-83
					C302,188.238,299.761,186,297,186z"/>
			</g>
		</g>
		<g id="Rounded_Rectangle_4">
			<g>
				<path style="fill:#EBEBEB;" d="M289,26h-12c-2.762,0-5,3.094-5,6.91v156.18c0,3.816,2.238,6.91,5,6.91h12
					c2.761,0,5-3.094,5-6.91V32.91C294,29.094,291.761,26,289,26z"/>
			</g>
		</g>
	</g>
	<g id="Rounded_Rectangle_5">
		<g>
			<path style="fill:#A64529;" d="M377,519H194c-2.762,0-5,2.238-5,5v71c0,2.762,2.238,5,5,5h183c2.762,0,5-2.238,5-5v-71
				C382,521.238,379.762,519,377,519z"/>
		</g>
	</g>
	<g id="Rounded_Rectangle_5_copy">
		<g>
			<path style="fill:#CC5533;" d="M377.182,527H200.818c-2.661,0-4.818,2.018-4.818,4.506v63.988c0,2.488,2.157,4.506,4.818,4.506
				h176.363c2.661,0,4.818-2.018,4.818-4.506v-63.988C382,529.018,379.843,527,377.182,527z"/>
		</g>
	</g>
</g>
<g id="HMCC_1_" style="enable-background:new    ;">
	<g id="HMCC">
		<g>
			<path style="fill-rule:evenodd;clip-rule:evenodd;fill:#A64529;" d="M246.831,562.553h-8.435v-19.684h-6.992v46.36h6.992v-19.646
				h8.435v19.646h6.992v-46.36h-6.992V562.553z M276.623,576.162l-6.516-33.33h-10.033v46.397h6.992v-29.081l6.771,29.081h5.623
				l6.066-29.155v29.155h6.992v-46.397h-9.639L276.623,576.162z M309.754,542.352c-3.059,0-5.672,1.079-7.842,3.237
				c-2.17,2.158-3.255,4.779-3.255,7.862v25.308c0,3.059,1.079,5.667,3.237,7.825c2.158,2.159,4.778,3.237,7.861,3.237
				c3.033,0,5.635-1.072,7.806-3.219c2.17-2.146,3.255-4.76,3.255-7.844v-6.475h-7.25v6.4c0,1.11-0.395,2.054-1.184,2.831
				c-0.79,0.776-1.739,1.165-2.849,1.165c-1.11,0-2.054-0.389-2.83-1.165c-0.777-0.777-1.166-1.721-1.166-2.831v-25.382
				c0-1.109,0.389-2.059,1.166-2.849c0.776-0.789,1.72-1.184,2.83-1.184c1.109,0,2.059,0.395,2.849,1.184
				c0.789,0.79,1.184,1.739,1.184,2.849v5.439h7.25v-5.291c0-3.059-1.072-5.673-3.218-7.844S312.837,542.352,309.754,542.352z
				 M348.596,558.742v-5.291c0-3.059-1.072-5.673-3.218-7.844s-4.761-3.256-7.843-3.256c-3.059,0-5.673,1.079-7.843,3.237
				s-3.255,4.779-3.255,7.862v25.308c0,3.059,1.078,5.667,3.236,7.825c2.158,2.159,4.778,3.237,7.861,3.237
				c3.033,0,5.635-1.072,7.806-3.219c2.17-2.146,3.255-4.76,3.255-7.844v-6.475h-7.25v6.4c0,1.11-0.396,2.054-1.185,2.831
				c-0.789,0.776-1.738,1.165-2.848,1.165c-1.11,0-2.054-0.389-2.83-1.165c-0.777-0.777-1.165-1.721-1.165-2.831v-25.382
				c0-1.109,0.388-2.059,1.165-2.849c0.776-0.789,1.72-1.184,2.83-1.184c1.109,0,2.059,0.395,2.848,1.184
				c0.789,0.79,1.185,1.739,1.185,2.849v5.439H348.596z"/>
		</g>
	</g>
</g>
<g id="HMCC_copy_1_" style="enable-background:new    ;">
	<g id="HMCC_copy">
		<g>
			<path style="fill-rule:evenodd;clip-rule:evenodd;fill:#FFFFFF;" d="M242.831,557.553h-8.435v-19.684h-6.992v46.36h6.992v-19.646
				h8.435v19.646h6.992v-46.36h-6.992V557.553z M272.623,571.162l-6.516-33.33h-10.033v46.397h6.992v-29.081l6.771,29.081h5.623
				l6.066-29.155v29.155h6.992v-46.397h-9.639L272.623,571.162z M305.754,537.352c-3.058,0-5.673,1.079-7.842,3.237
				c-2.17,2.158-3.255,4.779-3.255,7.862v25.308c0,3.059,1.079,5.667,3.237,7.825c2.158,2.159,4.778,3.237,7.861,3.237
				c3.033,0,5.635-1.072,7.806-3.219c2.17-2.146,3.255-4.76,3.255-7.844v-6.475h-7.25v6.4c0,1.11-0.395,2.054-1.184,2.831
				c-0.79,0.776-1.739,1.165-2.849,1.165c-1.11,0-2.053-0.389-2.83-1.165c-0.777-0.777-1.166-1.721-1.166-2.831v-25.382
				c0-1.109,0.389-2.059,1.166-2.849c0.777-0.789,1.72-1.184,2.83-1.184c1.109,0,2.059,0.395,2.849,1.184
				c0.789,0.79,1.184,1.739,1.184,2.849v5.439h7.25v-5.291c0-3.059-1.072-5.673-3.218-7.844S308.837,537.352,305.754,537.352z
				 M344.596,553.742v-5.291c0-3.059-1.072-5.673-3.218-7.844s-4.761-3.256-7.843-3.256c-3.059,0-5.673,1.079-7.843,3.237
				s-3.255,4.779-3.255,7.862v25.308c0,3.059,1.078,5.667,3.236,7.825c2.158,2.159,4.778,3.237,7.861,3.237
				c3.033,0,5.635-1.072,7.806-3.219c2.17-2.146,3.255-4.76,3.255-7.844v-6.475h-7.25v6.4c0,1.11-0.396,2.054-1.185,2.831
				c-0.789,0.776-1.738,1.165-2.848,1.165c-1.11,0-2.054-0.389-2.83-1.165c-0.777-0.777-1.165-1.721-1.165-2.831v-25.382
				c0-1.109,0.388-2.059,1.165-2.849c0.776-0.789,1.72-1.184,2.83-1.184c1.109,0,2.059,0.395,2.848,1.184
				c0.789,0.79,1.185,1.739,1.185,2.849v5.439H344.596z"/>
		</g>
	</g>
</g>
</svg>
