<?xml version="1.0" encoding="utf-8"?>
<!-- Generator: Adobe Illustrator 16.0.0, SVG Export Plug-In . SVG Version: 6.00 Build 0)  -->
<!DOCTYPE svg PUBLIC "-//W3C//DTD SVG 1.1//EN" "http://www.w3.org/Graphics/SVG/1.1/DTD/svg11.dtd">
<svg version="1.1" id="Layer_1" xmlns="http://www.w3.org/2000/svg" xmlns:xlink="http://www.w3.org/1999/xlink" x="0px" y="0px"
	 width="800px" height="800px" viewBox="0 0 800 800" enable-background="new 0 0 800 800" xml:space="preserve">
<g id="Shape_2_1_" display="none" enable-background="new    ">
	<g id="Shape_2" display="inline">
		<g>
			<path fill="#34495E" d="M293,32c-4.377-4.948-9,397-9,397L30,671l131.49,129h830.297C916.767,717.773,351.594,98.25,293,32z"/>
		</g>
	</g>
</g>
<g id="Controller_1_">
	<g id="Body_1_">
		<g id="Shape_1">
			<g>
				<path fill="#EBEBEB" d="M647.002,682.981c-4-39,0.988-316.986-46-338c-55.857-24.979-218-34-218-34
					s-10.763,345.925,1.001,345.925c26.036,0,52.831,0.553,59.999,0.074c15-1,47.504,4.164,56,29c13,38,53,36,53,36h68
					C621.002,721.981,651.002,721.981,647.002,682.981z"/>
			</g>
		</g>
		<g id="Shape_1_copy">
			<g>
				<path fill="#EBEBEB" d="M403.51,310.982c0,0-161.841,9.021-217.596,33.997C139.012,365.99,143.993,643.958,140,682.954
					c-3.993,38.998,25.952,38.998,25.952,38.998h67.874c0,0,39.926,2,52.901-35.998c8.48-24.834,40.924-29.998,55.896-28.998
					c7.152,0.479,33.898-0.076,59.888-0.076C414.252,656.88,403.51,310.982,403.51,310.982z"/>
			</g>
		</g>
	</g>
	<g id="Gear_Sticks_1_">
		<g id="Right_1_">
			<g id="Ellipse_2_copy">
				<g>
					<circle fill="#CC5533" cx="512.502" cy="455.481" r="79.5"/>
				</g>
			</g>
			<g id="Ellipse_2_copy_7">
				<g>
					<path fill="#A64529" d="M446.002,474.481c0-46.668,36.265-84.5,81-84.5c18.006,0,34.634,6.138,48.082,16.503
						c-14.554-18.561-37.167-30.503-62.582-30.503c-43.906,0-79.5,35.595-79.5,79.5c0,19.91,7.336,38.098,19.432,52.045
						C448.295,497.376,446.002,486.21,446.002,474.481z"/>
				</g>
			</g>
			<g id="Ellipse_2_copy_8">
				<g>
					<circle fill="#A64529" cx="516.502" cy="462.481" r="64.5"/>
				</g>
			</g>
			<g id="Ellipse_2_copy_4">
				<g>
					<circle fill="#EBEBEB" cx="512.502" cy="455.481" r="64.5"/>
				</g>
			</g>
			<g id="Rectangle_1_copy">
				<g>
					<rect x="458.002" y="425.981" fill="#A64529" width="110" height="61"/>
				</g>
			</g>
			<g id="Rectangle_1_copy_3">
				<g>
					<rect x="462.002" y="434.981" fill="#CC5533" width="106" height="52"/>
				</g>
			</g>
			<g id="Rectangle_2_copy">
				<g>
					<path fill="#A64529" d="M470.002,450.981v19h30.266c-1.444-2.68-2.266-5.742-2.266-9c0-3.674,1.061-7.092,2.866-10H470.002z
						 M533.135,450.981c1.806,2.908,2.867,6.326,2.867,10c0,3.258-0.822,6.32-2.267,9h28.267v-19H533.135z"/>
				</g>
			</g>
			<g id="Rectangle_2_copy_3">
				<g>
					<path fill="#EBEBEB" d="M466.002,445.981v19h30.266c-1.444-2.68-2.266-5.742-2.266-9c0-3.674,1.061-7.092,2.866-10H466.002z
						 M529.135,445.981c1.806,2.908,2.867,6.326,2.867,10c0,3.258-0.822,6.32-2.267,9h28.267v-19H529.135z"/>
				</g>
			</g>
			<g id="Ellipse_2_copy_2">
				<g>
					<circle fill="#A64529" cx="515.002" cy="459.981" r="14"/>
				</g>
			</g>
			<g id="Ellipse_2_copy_10">
				<g>
					<circle fill="#EBEBEB" cx="513.002" cy="455.981" r="14"/>
				</g>
			</g>
		</g>
		<g id="Left_1_">
			<g id="Ellipse_2">
				<g>
					<circle fill="#CC5533" cx="277.502" cy="455.481" r="79.5"/>
				</g>
			</g>
			<g id="Ellipse_2_copy_6">
				<g>
					<path fill="#A64529" d="M211.002,474.481c0-46.668,36.265-84.5,81-84.5c18.006,0,34.634,6.138,48.083,16.505
						c-14.554-18.563-37.166-30.505-62.583-30.505c-43.907,0-79.5,35.595-79.5,79.5c0,19.912,7.337,38.098,19.432,52.047
						C213.295,497.376,211.002,486.21,211.002,474.481z"/>
				</g>
			</g>
			<g id="Ellipse_2_copy_9">
				<g>
					<circle fill="#A64529" cx="281.502" cy="462.481" r="64.5"/>
				</g>
			</g>
			<g id="Ellipse_2_copy_5">
				<g>
					<circle fill="#EBEBEB" cx="277.502" cy="456.481" r="64.5"/>
				</g>
			</g>
			<g id="Rectangle_1">
				<g>
					<rect x="248.002" y="401.981" fill="#A64529" width="61" height="110"/>
				</g>
			</g>
			<g id="Rectangle_1_copy_2">
				<g>
					<rect x="257.002" y="406.981" fill="#CC5533" width="51" height="105"/>
				</g>
			</g>
			<g id="Rectangle_2_copy_2">
				<g>
					<path fill="#A64529" d="M274.002,477.716v28.266h19v-28.865c-2.907,1.807-6.326,2.865-10,2.865
						C279.745,479.981,276.681,479.161,274.002,477.716z M274.002,413.981v30.268c2.679-1.443,5.743-2.268,9-2.268
						c3.674,0,7.093,1.063,10,2.867v-30.867H274.002z"/>
				</g>
			</g>
			<g id="Rectangle_2">
				<g>
					<path fill="#EBEBEB" d="M269.002,409.981v30.268c2.679-1.443,5.743-2.268,9-2.268c3.674,0,7.093,1.063,10,2.867v-30.867
						H269.002z M269.002,473.716v28.266h19v-28.865c-2.907,1.807-6.326,2.865-10,2.865
						C274.745,475.981,271.681,475.161,269.002,473.716z"/>
				</g>
			</g>
			<g id="Ellipse_2_copy_3">
				<g>
					<circle fill="#A64529" cx="280.502" cy="459.481" r="14"/>
				</g>
			</g>
			<g id="Ellipse_2_copy_11">
				<g>
					<circle fill="#EBEBEB" cx="278.002" cy="456.981" r="14"/>
				</g>
			</g>
		</g>
	</g>
	<g id="Antenna_1_">
		<g id="Rounded_Rectangle_2">
			<g>
				<path fill="#EBEBEB" d="M464.707,341.808l-10.804-43.219c-2.22-8.875-9.246-15.607-15.838-15.607h-87.129
					c-6.592,0-13.539,6.732-15.651,15.607l-10.29,43.219c-3.185,13.377,1.323,25.174,10.351,25.174h119.312
					C463.685,366.982,468.053,355.185,464.707,341.808z"/>
			</g>
		</g>
		<g id="Rounded_Rectangle_3">
			<g>
				<path fill="#EBEBEB" d="M407.002,220.982h-28c-2.763,0-5,2.238-5,5v83c0,2.763,2.237,5,5,5h28c2.761,0,5-2.237,5-5v-83
					C412.002,223.22,409.763,220.982,407.002,220.982z"/>
			</g>
		</g>
		<g id="Rounded_Rectangle_4">
			<g>
				<path fill="#EBEBEB" d="M399.002,60.982h-12c-2.763,0-5,3.095-5,6.91v156.18c0,3.816,2.237,6.91,5,6.91h12
					c2.761,0,5-3.094,5-6.91V67.892C404.002,64.076,401.763,60.982,399.002,60.982z"/>
			</g>
		</g>
	</g>
	<g id="Rounded_Rectangle_5">
		<g>
			<path fill="#A64529" d="M487.002,553.981h-183c-2.763,0-5,2.238-5,5v71c0,2.764,2.237,5,5,5h183c2.762,0,5-2.236,5-5v-71
				C492.002,556.219,489.764,553.981,487.002,553.981z"/>
		</g>
	</g>
	<g id="Rounded_Rectangle_5_copy">
		<g>
			<path fill="#CC5533" d="M487.184,561.981H310.82c-2.66,0-4.817,2.02-4.817,4.508v63.986c0,2.488,2.157,4.506,4.817,4.506h176.363
				c2.661,0,4.817-2.018,4.817-4.506v-63.986C492.002,564.001,489.845,561.981,487.184,561.981z"/>
		</g>
	</g>
</g>
<g id="HMCC_1_" enable-background="new    ">
	<g id="HMCC">
		<g>
			<path fill="#A64529" d="M356.833,597.536h-8.436V577.85h-6.992v46.361h6.992v-19.646h8.436v19.646h6.991V577.85h-6.991V597.536z
				 M386.625,611.143l-6.517-33.33h-10.032v46.398h6.991V595.13l6.771,29.082h5.623l6.065-29.156v29.156h6.992v-46.398h-9.639
				L386.625,611.143z M419.756,577.335c-3.06,0-5.673,1.078-7.843,3.236s-3.255,4.779-3.255,7.861v25.309
				c0,3.059,1.079,5.668,3.237,7.824c2.158,2.16,4.778,3.238,7.861,3.238c3.032,0,5.635-1.072,7.806-3.219
				c2.17-2.146,3.255-4.76,3.255-7.844v-6.477h-7.25v6.4c0,1.111-0.395,2.055-1.184,2.832c-0.79,0.775-1.739,1.164-2.85,1.164
				c-1.109,0-2.054-0.389-2.83-1.164c-0.776-0.777-1.166-1.721-1.166-2.832v-25.381c0-1.109,0.39-2.061,1.166-2.85
				s1.721-1.184,2.83-1.184s2.06,0.395,2.85,1.184c0.789,0.789,1.184,1.738,1.184,2.85v5.438h7.25v-5.291
				c0-3.059-1.072-5.672-3.218-7.844C425.453,578.417,422.839,577.335,419.756,577.335z M458.598,593.723v-5.291
				c0-3.059-1.072-5.672-3.218-7.844c-2.146-2.17-4.762-3.256-7.844-3.256c-3.059,0-5.673,1.08-7.843,3.238
				c-2.17,2.156-3.255,4.777-3.255,7.861v25.309c0,3.059,1.078,5.666,3.236,7.824c2.157,2.158,4.777,3.236,7.86,3.236
				c3.033,0,5.636-1.072,7.807-3.219c2.17-2.146,3.255-4.76,3.255-7.844v-6.475h-7.25v6.4c0,1.109-0.396,2.053-1.186,2.83
				c-0.789,0.775-1.737,1.166-2.848,1.166s-2.054-0.391-2.83-1.166c-0.777-0.777-1.165-1.721-1.165-2.83v-25.383
				c0-1.109,0.388-2.059,1.165-2.85c0.776-0.789,1.72-1.184,2.83-1.184c1.109,0,2.059,0.395,2.848,1.184
				c0.789,0.791,1.186,1.74,1.186,2.85v5.439h7.251V593.723z"/>
		</g>
	</g>
</g>
<g id="HMCC_copy_1_" enable-background="new    ">
	<g id="HMCC_copy">
		<g>
			<path fill="#FFFFFF" d="M352.833,592.536h-8.436V572.85h-6.992v46.361h6.992v-19.646h8.436v19.646h6.991V572.85h-6.991V592.536z
				 M382.625,606.143l-6.517-33.33h-10.032v46.398h6.991V590.13l6.771,29.082h5.623l6.065-29.156v29.156h6.992v-46.398h-9.639
				L382.625,606.143z M415.756,572.335c-3.059,0-5.674,1.078-7.843,3.236s-3.255,4.779-3.255,7.861v25.309
				c0,3.059,1.079,5.668,3.237,7.824c2.158,2.16,4.778,3.238,7.861,3.238c3.032,0,5.635-1.072,7.806-3.219
				c2.17-2.146,3.255-4.76,3.255-7.844v-6.477h-7.25v6.4c0,1.111-0.395,2.055-1.184,2.832c-0.79,0.775-1.739,1.164-2.85,1.164
				c-1.109,0-2.053-0.389-2.83-1.164c-0.776-0.777-1.166-1.721-1.166-2.832v-25.381c0-1.109,0.39-2.061,1.166-2.85
				c0.777-0.789,1.721-1.184,2.83-1.184s2.06,0.395,2.85,1.184c0.789,0.789,1.184,1.738,1.184,2.85v5.438h7.25v-5.291
				c0-3.059-1.072-5.672-3.218-7.844C421.453,573.417,418.839,572.335,415.756,572.335z M454.598,588.723v-5.291
				c0-3.059-1.072-5.672-3.218-7.844c-2.146-2.17-4.762-3.256-7.844-3.256c-3.059,0-5.673,1.08-7.843,3.238
				c-2.17,2.156-3.255,4.777-3.255,7.861v25.309c0,3.059,1.078,5.666,3.236,7.824c2.157,2.158,4.777,3.236,7.86,3.236
				c3.033,0,5.636-1.072,7.807-3.219c2.17-2.146,3.255-4.76,3.255-7.844v-6.475h-7.25v6.4c0,1.109-0.396,2.053-1.186,2.83
				c-0.789,0.775-1.737,1.166-2.848,1.166s-2.054-0.391-2.83-1.166c-0.777-0.777-1.165-1.721-1.165-2.83v-25.383
				c0-1.109,0.388-2.059,1.165-2.85c0.776-0.789,1.72-1.184,2.83-1.184c1.109,0,2.059,0.395,2.848,1.184
				c0.789,0.791,1.186,1.74,1.186,2.85v5.439h7.251V588.723z"/>
		</g>
	</g>
</g>
</svg>
